<svg id="Capa_1" data-name="Capa 1" xmlns="http://www.w3.org/2000/svg" viewBox="0 0 98.84 98.84"><defs><style>.cls-1{fill:none;}.cls-1,.cls-2{stroke:#fba905;stroke-miterlimit:10;stroke-width:2px;}.cls-2{fill:#fff;}</style></defs><title>big-business</title><circle class="cls-1" cx="49.42" cy="49.42" r="48.42"/><rect class="cls-2" x="33.04" y="20.21" width="26.4" height="52.19"/><rect class="cls-2" x="36.64" y="24.05" width="19.68" height="5.52"/><rect class="cls-2" x="36.4" y="33.89" width="19.68" height="5.52"/><rect class="cls-2" x="36.64" y="43.54" width="19.68" height="5.52"/><rect class="cls-2" x="36.4" y="53.2" width="19.68" height="5.52"/><rect class="cls-2" x="36.64" y="62.86" width="19.68" height="5.52"/><path class="cls-1" d="M66.52,73.24V65.45L69.4,63.7A22.59,22.59,0,0,0,66.52,54a16.8,16.8,0,0,0-3.12,9.6" transform="translate(-0.84 -0.84)"/><path class="cls-1" d="M72.52,73.32V65.53l2.88-1.75a22.59,22.59,0,0,0-2.88-9.66,16.8,16.8,0,0,0-3.12,9.6" transform="translate(-0.84 -0.84)"/></svg>