<svg xmlns="http://www.w3.org/2000/svg" xmlns:xlink="http://www.w3.org/1999/xlink" viewBox="0 0 40.8 38.46"><defs><style>.cls-1{fill:url(#Degradado_sin_nombre_14);}.cls-2{fill:none;}.cls-3{font-size:30px;fill:#fff;font-family:SFProDisplay-HeavyItalic, SF Pro Display;font-weight:800;font-style:italic;}</style><linearGradient id="Degradado_sin_nombre_14" y1="15.2" x2="40.8" y2="15.2" gradientUnits="userSpaceOnUse"><stop offset="0" stop-color="#cb2d3e"/><stop offset="1" stop-color="#ef473a"/></linearGradient></defs><title>Recurso 1logo</title><g id="Capa_2" data-name="Capa 2"><g id="Capa_1-2" data-name="Capa 1"><path class="cls-1" d="M40.8,21.25a7.66,7.66,0,0,1-7.66,7.65H8.38A8.38,8.38,0,0,1,0,20.56v0a8.35,8.35,0,0,1,4.91-7.62c0-.25,0-.5,0-.76A10.65,10.65,0,0,1,25.33,8a6.73,6.73,0,0,1,8.42,5.63A7.62,7.62,0,0,1,40.69,20,6.36,6.36,0,0,1,40.8,21.25Z"/><path class="cls-2" d="M40.8,20.56v.69A6.36,6.36,0,0,0,40.69,20,1.46,1.46,0,0,1,40.8,20.56Z"/><text class="cls-3" transform="translate(11.98 25.57)">F</text></g></g></svg>