<svg id="Capa_1" data-name="Capa 1" xmlns="http://www.w3.org/2000/svg" viewBox="0 0 97.76 97.76"><defs><style>.cls-1{fill:none;}.cls-1,.cls-2{stroke:#ff3c32;stroke-miterlimit:10;stroke-width:2px;}.cls-2{fill:#fff;}</style></defs><title>online-prescense</title><circle class="cls-1" cx="48.88" cy="48.88" r="47.88"/><circle class="cls-1" cx="51.01" cy="48.88" r="25.24"/><path class="cls-1" d="M49.55,25l-3,7.09-2.05,2.28L42,35.28l1.7,5-1.7.8-3.34-5.52L37.14,38l-1,2.37-.95,6.15.63,1.74H44L48,49.48l3,1.74-1.1,2.68-3.32,3.31L43.1,58.63l-2.05,1.73-.63,2.37-.63,2.21-1.11,1.58-.63,1.58.63.78-1.29,1.25-2.17-3.45V63.2l-1.9-5.67L32.53,53V48.22l.95-1.89.31-9.63-.86-2.29S37.86,26.78,49.55,25Z" transform="translate(-1.2 -1.2)"/><circle class="cls-2" cx="29.24" cy="33.21" r="5.92"/><path class="cls-2" d="M19.67,50.08H41.21s1.1-9.75-10.77-9.75S19.67,50.08,19.67,50.08Z" transform="translate(-1.2 -1.2)"/><path class="cls-2" d="M69.26,31.63,67,35.13l-1,3-2,1.26H61.51l-3,1-1.58,1.41v1.9H55.51V47h2.05l2.53-1,1.42-.8L63.72,47l-1.33,1.42,4-1.74-3.16-1.43,2.37-2.51,3.65-1,1.4,3.46v2.37l-3.31,1.74L63.09,50.9H59.93l-2.37,1-2.05,2.52V59l3.32,2.2,2.36,1.74,1.9,2-.64,2L62,70.13l-.63,1.75-.08,1.7s7.07-3.12,9.81-6.93l3.53-5.25-2.85-5.3,2.85-1.89L72.39,52.6H70.66L77,46.16S76.53,38.68,69.26,31.63Z" transform="translate(-1.2 -1.2)"/></svg>