<svg id="Capa_1" data-name="Capa 1" xmlns="http://www.w3.org/2000/svg" viewBox="0 0 96.56 96.56"><defs><style>.cls-1{fill:none;}.cls-1,.cls-2{stroke:#00cbff;stroke-miterlimit:10;stroke-width:2px;}.cls-2{fill:#fff;}</style></defs><title>small-business</title><circle class="cls-1" cx="48.28" cy="48.28" r="47.28"/><rect class="cls-2" x="25.64" y="32.12" width="47.28" height="28.32"/><path class="cls-1" d="M27.08,38.46c2,0,2,2.84,3.93,2.84s2-2.84,3.94-2.84,2,2.84,3.94,2.84,2-2.84,3.94-2.84,2,2.84,3.94,2.84,2-2.84,3.94-2.84,2,2.84,3.94,2.84,2-2.84,3.94-2.84,2,2.84,3.94,2.84,2-2.84,3.94-2.84,2,2.84,3.94,2.84,2-2.84,4-2.84" transform="translate(-1.44 -1.56)"/><rect class="cls-1" x="30.04" y="43.12" width="9.6" height="17.32"/><rect class="cls-1" x="43" y="43.12" width="25.2" height="12.24"/></svg>